<?xml version="1.0" encoding="iso-8859-1"?>
<!-- Uploaded to: SVG Repo, www.svgrepo.com, Generator: SVG Repo Mixer Tools -->
<svg fill="#000000" height="800px" width="800px" version="1.1" id="Capa_1" xmlns="http://www.w3.org/2000/svg" xmlns:xlink="http://www.w3.org/1999/xlink" 
	 viewBox="0 0 46.251 46.251" xml:space="preserve">
<g>
	<path d="M10.228,25.923c-2.339,0-4.236,1.896-4.236,4.233c0,2.341,1.898,4.235,4.236,4.235c2.34,0,4.236-1.896,4.236-4.235
		C14.464,27.818,12.568,25.923,10.228,25.923z M10.228,32.547c-1.317,0-2.388-1.07-2.388-2.391c0-1.314,1.071-2.387,2.388-2.387
		c1.316,0,2.389,1.07,2.389,2.387C12.617,31.477,11.544,32.547,10.228,32.547z M37.032,25.923c-2.339,0-4.236,1.896-4.236,4.233
		c0,2.341,1.898,4.235,4.236,4.235c2.34,0,4.237-1.896,4.237-4.235C41.269,27.818,39.372,25.923,37.032,25.923z M37.032,32.547
		c-1.316,0-2.388-1.07-2.388-2.391c0-1.314,1.071-2.387,2.388-2.387s2.389,1.07,2.389,2.387
		C39.42,31.477,38.349,32.547,37.032,32.547z M44.71,25.923v-1.465c0-3.062-2.479-4.157-5.545-4.157h-6.6l-1.122-3.769
		c-0.981-3.318-4.063-4.672-6.22-4.672h-8.972c-1.37,0-2.006,0.466-2.299,1.223l-8.947,6.769c-0.014-1.37-1.128-2.479-2.503-2.479
		C1.121,17.373,0,18.491,0,19.875v5.564c0,1.383,1.121,2.502,2.502,2.502v2.215h3.235c0-2.551,2.07-4.621,4.621-4.621
		c2.553,0,4.623,2.07,4.623,4.621h17.354c0-2.551,2.069-4.621,4.623-4.621c2.553,0,4.621,2.07,4.621,4.621h1.283h1.85h1.539v-4.232
		L44.71,25.923L44.71,25.923z M13.728,20.299H7.475l6.24-4.723c0.006,0.311,0.012,0.628,0.012,0.953L13.728,20.299L13.728,20.299z
		 M26.831,20.299H16.038v-3.768c0-1.451-0.048-2.632,1.599-2.632h7.585c1.647,0,3.909,1.181,3.909,2.632l0.179,1.021L26.831,20.299z
		"/>
</g>
</svg>